<svg width="63" height="48" viewBox="0 0 63 48" fill="none" xmlns="http://www.w3.org/2000/svg">
<path d="M4.8925 47.0864V12.9046H9.03171V29.862H9.43227L24.7874 12.9046H30.1951L15.8414 28.3265L30.1951 47.0864H25.188L13.3044 31.1972L9.03171 36.004V47.0864H4.8925Z" fill="white"/>
<path d="M48.9907 12.1558H53.1299V36.5905C53.1299 38.7714 52.7293 40.624 51.9282 42.1484C51.127 43.6728 49.9977 44.83 48.54 45.62C47.0824 46.41 45.3633 46.805 43.3827 46.805C41.5134 46.805 39.8499 46.4656 38.3923 45.7869C36.9347 45.097 35.7886 44.1178 34.9541 42.8494C34.1196 41.5809 33.7023 40.0732 33.7023 38.3263H37.7748C37.7748 39.2943 38.014 40.14 38.4924 40.8632C38.982 41.5753 39.6496 42.1317 40.4953 42.5322C41.3409 42.9328 42.3034 43.1331 43.3827 43.1331C44.5733 43.1331 45.5858 42.8827 46.4204 42.382C47.2549 41.8813 47.8891 41.147 48.3231 40.1789C48.7681 39.1997 48.9907 38.0036 48.9907 36.5905V12.1558Z" fill="#EA003D"/>
</svg>
